{
    "asset" : {
        "generator" : "Khronos glTF Blender I/O v1.8.19",
        "version" : "2.0"
    },
    "scene" : 0,
    "scenes" : [
        {
            "name" : "Scene",
            "nodes" : [
                0
            ]
        }
    ],
    "nodes" : [
        {
            "mesh" : 0,
            "name" : "car",
            "rotation" : [
                0.5,
                0.5,
                -0.5,
                0.4999999701976776
            ]
        }
    ],
    "materials" : [
        {
            "doubleSided" : true,
            "name" : "00343434",
            "pbrMetallicRoughness" : {
                "baseColorFactor" : [
                    0.20392000675201416,
                    0.20392000675201416,
                    0.20392000675201416,
                    1
                ],
                "metallicFactor" : 0.25,
                "roughnessFactor" : 0.4000000059604645
            }
        },
        {
            "doubleSided" : true,
            "name" : "00FFFFFF",
            "pbrMetallicRoughness" : {
                "metallicFactor" : 0,
                "roughnessFactor" : 0.6422291398048401
            }
        },
        {
            "doubleSided" : true,
            "name" : "000012D6",
            "pbrMetallicRoughness" : {
                "baseColorFactor" : [
                    0.8392199873924255,
                    0.07058999687433243,
                    0,
                    1
                ],
                "metallicFactor" : 0,
                "roughnessFactor" : 0.6422291398048401
            }
        },
        {
            "doubleSided" : true,
            "name" : "00FFE923",
            "pbrMetallicRoughness" : {
                "baseColorFactor" : [
                    0.13725000619888306,
                    0.9137300252914429,
                    1,
                    1
                ],
                "metallicFactor" : 0,
                "roughnessFactor" : 0.6422291398048401
            }
        },
        {
            "doubleSided" : true,
            "name" : "00000BCC",
            "pbrMetallicRoughness" : {
                "baseColorFactor" : [
                    0.800000011920929,
                    0.043140001595020294,
                    0,
                    1
                ],
                "metallicFactor" : 0,
                "roughnessFactor" : 0.6422291398048401
            }
        }
    ],
    "meshes" : [
        {
            "name" : "car",
            "primitives" : [
                {
                    "attributes" : {
                        "POSITION" : 0,
                        "NORMAL" : 1
                    },
                    "indices" : 2,
                    "material" : 0
                },
                {
                    "attributes" : {
                        "POSITION" : 3,
                        "NORMAL" : 4
                    },
                    "indices" : 5,
                    "material" : 1
                },
                {
                    "attributes" : {
                        "POSITION" : 6,
                        "NORMAL" : 7
                    },
                    "indices" : 8,
                    "material" : 2
                },
                {
                    "attributes" : {
                        "POSITION" : 9,
                        "NORMAL" : 10
                    },
                    "indices" : 11,
                    "material" : 3
                },
                {
                    "attributes" : {
                        "POSITION" : 12,
                        "NORMAL" : 13
                    },
                    "indices" : 14,
                    "material" : 4
                }
            ]
        }
    ],
    "accessors" : [
        {
            "bufferView" : 0,
            "componentType" : 5126,
            "count" : 4144,
            "max" : [
                0.222638338804245,
                0.7742186784744263,
                0.24995146691799164
            ],
            "min" : [
                -0.17736166715621948,
                -0.7757813930511475,
                -0.25004851818084717
            ],
            "type" : "VEC3"
        },
        {
            "bufferView" : 1,
            "componentType" : 5126,
            "count" : 4144,
            "type" : "VEC3"
        },
        {
            "bufferView" : 2,
            "componentType" : 5123,
            "count" : 17223,
            "type" : "SCALAR"
        },
        {
            "bufferView" : 3,
            "componentType" : 5126,
            "count" : 3416,
            "max" : [
                0.18763834238052368,
                0.7992186546325684,
                0.24995146691799164
            ],
            "min" : [
                -0.15736167132854462,
                -0.8007813692092896,
                -0.25004851818084717
            ],
            "type" : "VEC3"
        },
        {
            "bufferView" : 4,
            "componentType" : 5126,
            "count" : 3416,
            "type" : "VEC3"
        },
        {
            "bufferView" : 5,
            "componentType" : 5123,
            "count" : 9966,
            "type" : "SCALAR"
        },
        {
            "bufferView" : 6,
            "componentType" : 5126,
            "count" : 40,
            "max" : [
                -0.15736167132854462,
                0.4432185888290405,
                0.18195146322250366
            ],
            "min" : [
                -0.15736167132854462,
                -0.4447813630104065,
                -0.18204854428768158
            ],
            "type" : "VEC3"
        },
        {
            "bufferView" : 7,
            "componentType" : 5126,
            "count" : 40,
            "type" : "VEC3"
        },
        {
            "bufferView" : 8,
            "componentType" : 5123,
            "count" : 135,
            "type" : "SCALAR"
        },
        {
            "bufferView" : 9,
            "componentType" : 5126,
            "count" : 4,
            "max" : [
                -0.14640825986862183,
                0.6635198593139648,
                0.08995147049427032
            ],
            "min" : [
                -0.15439052879810333,
                0.543785572052002,
                -0.09004853665828705
            ],
            "type" : "VEC3"
        },
        {
            "bufferView" : 10,
            "componentType" : 5126,
            "count" : 4,
            "type" : "VEC3"
        },
        {
            "bufferView" : 11,
            "componentType" : 5123,
            "count" : 6,
            "type" : "SCALAR"
        },
        {
            "bufferView" : 12,
            "componentType" : 5126,
            "count" : 260,
            "max" : [
                -0.021361663937568665,
                0.7642186880111694,
                0.21495147049427032
            ],
            "min" : [
                -0.06636166572570801,
                -0.7657813429832458,
                -0.21504853665828705
            ],
            "type" : "VEC3"
        },
        {
            "bufferView" : 13,
            "componentType" : 5126,
            "count" : 260,
            "type" : "VEC3"
        },
        {
            "bufferView" : 14,
            "componentType" : 5123,
            "count" : 768,
            "type" : "SCALAR"
        }
    ],
    "bufferViews" : [
        {
            "buffer" : 0,
            "byteLength" : 49728,
            "byteOffset" : 0
        },
        {
            "buffer" : 0,
            "byteLength" : 49728,
            "byteOffset" : 49728
        },
        {
            "buffer" : 0,
            "byteLength" : 34446,
            "byteOffset" : 99456
        },
        {
            "buffer" : 0,
            "byteLength" : 40992,
            "byteOffset" : 133904
        },
        {
            "buffer" : 0,
            "byteLength" : 40992,
            "byteOffset" : 174896
        },
        {
            "buffer" : 0,
            "byteLength" : 19932,
            "byteOffset" : 215888
        },
        {
            "buffer" : 0,
            "byteLength" : 480,
            "byteOffset" : 235820
        },
        {
            "buffer" : 0,
            "byteLength" : 480,
            "byteOffset" : 236300
        },
        {
            "buffer" : 0,
            "byteLength" : 270,
            "byteOffset" : 236780
        },
        {
            "buffer" : 0,
            "byteLength" : 48,
            "byteOffset" : 237052
        },
        {
            "buffer" : 0,
            "byteLength" : 48,
            "byteOffset" : 237100
        },
        {
            "buffer" : 0,
            "byteLength" : 12,
            "byteOffset" : 237148
        },
        {
            "buffer" : 0,
            "byteLength" : 3120,
            "byteOffset" : 237160
        },
        {
            "buffer" : 0,
            "byteLength" : 3120,
            "byteOffset" : 240280
        },
        {
            "buffer" : 0,
            "byteLength" : 1536,
            "byteOffset" : 243400
        }
    ],
    "buffers" : [
        {
            "byteLength" : 244936,
            "uri" : "data:application/octet-stream;base64,"
        }
    ]
}
